<mxfile host="app.diagrams.net" agent="Mozilla/5.0 (Windows NT 10.0; Win64; x64) AppleWebKit/537.36 (KHTML, like Gecko) Chrome/129.0.0.0 Safari/537.36" version="24.7.16">
  <diagram name="Page-1" id="iVE3-9Jh9-pV0OvLz4LS">
    <mxGraphModel dx="2945" dy="2380" grid="0" gridSize="10" guides="1" tooltips="1" connect="1" arrows="1" fold="1" page="0" pageScale="1" pageWidth="827" pageHeight="1169" math="0" shadow="0">
      <root>
        <mxCell id="0" />
        <mxCell id="1" parent="0" />
        <mxCell id="PrzpEWMl3VC5cEmJrlh5-6" value="" style="edgeStyle=none;curved=1;rounded=0;orthogonalLoop=1;jettySize=auto;html=1;fontSize=12;startSize=8;endSize=8;" edge="1" parent="1" source="PrzpEWMl3VC5cEmJrlh5-4" target="PrzpEWMl3VC5cEmJrlh5-5">
          <mxGeometry relative="1" as="geometry" />
        </mxCell>
        <mxCell id="PrzpEWMl3VC5cEmJrlh5-4" value="" style="ellipse;whiteSpace=wrap;html=1;" vertex="1" parent="1">
          <mxGeometry x="70" y="-275" width="46" height="38" as="geometry" />
        </mxCell>
        <mxCell id="PrzpEWMl3VC5cEmJrlh5-9" value="" style="edgeStyle=none;curved=1;rounded=0;orthogonalLoop=1;jettySize=auto;html=1;fontSize=12;startSize=8;endSize=8;" edge="1" parent="1" source="PrzpEWMl3VC5cEmJrlh5-5" target="PrzpEWMl3VC5cEmJrlh5-8">
          <mxGeometry relative="1" as="geometry" />
        </mxCell>
        <mxCell id="PrzpEWMl3VC5cEmJrlh5-5" value="Explain program to user" style="shape=parallelogram;perimeter=parallelogramPerimeter;whiteSpace=wrap;html=1;fixedSize=1;" vertex="1" parent="1">
          <mxGeometry x="-17.5" y="-205" width="221" height="60" as="geometry" />
        </mxCell>
        <mxCell id="PrzpEWMl3VC5cEmJrlh5-11" value="" style="edgeStyle=none;curved=1;rounded=0;orthogonalLoop=1;jettySize=auto;html=1;fontSize=12;startSize=8;endSize=8;" edge="1" parent="1" source="PrzpEWMl3VC5cEmJrlh5-8" target="PrzpEWMl3VC5cEmJrlh5-10">
          <mxGeometry relative="1" as="geometry" />
        </mxCell>
        <mxCell id="PrzpEWMl3VC5cEmJrlh5-8" value="Ask for user to input Hill type" style="shape=parallelogram;perimeter=parallelogramPerimeter;whiteSpace=wrap;html=1;fixedSize=1;" vertex="1" parent="1">
          <mxGeometry x="-17.5" y="-110" width="221" height="60" as="geometry" />
        </mxCell>
        <mxCell id="PrzpEWMl3VC5cEmJrlh5-14" value="" style="edgeStyle=none;curved=1;rounded=0;orthogonalLoop=1;jettySize=auto;html=1;fontSize=12;startSize=8;endSize=8;" edge="1" parent="1" source="PrzpEWMl3VC5cEmJrlh5-10" target="PrzpEWMl3VC5cEmJrlh5-13">
          <mxGeometry relative="1" as="geometry" />
        </mxCell>
        <mxCell id="PrzpEWMl3VC5cEmJrlh5-23" value="" style="edgeStyle=none;curved=1;rounded=0;orthogonalLoop=1;jettySize=auto;html=1;fontSize=12;startSize=8;endSize=8;" edge="1" parent="1" source="PrzpEWMl3VC5cEmJrlh5-10" target="PrzpEWMl3VC5cEmJrlh5-22">
          <mxGeometry relative="1" as="geometry" />
        </mxCell>
        <mxCell id="PrzpEWMl3VC5cEmJrlh5-10" value="If hill type entered is Normal:" style="rhombus;whiteSpace=wrap;html=1;" vertex="1" parent="1">
          <mxGeometry x="-24.5" y="-5" width="235" height="134" as="geometry" />
        </mxCell>
        <mxCell id="PrzpEWMl3VC5cEmJrlh5-17" value="" style="edgeStyle=none;curved=1;rounded=0;orthogonalLoop=1;jettySize=auto;html=1;fontSize=12;startSize=8;endSize=8;" edge="1" parent="1" source="PrzpEWMl3VC5cEmJrlh5-13" target="PrzpEWMl3VC5cEmJrlh5-16">
          <mxGeometry relative="1" as="geometry" />
        </mxCell>
        <mxCell id="PrzpEWMl3VC5cEmJrlh5-26" value="" style="edgeStyle=none;curved=1;rounded=0;orthogonalLoop=1;jettySize=auto;html=1;fontSize=12;startSize=8;endSize=8;" edge="1" parent="1" source="PrzpEWMl3VC5cEmJrlh5-13" target="PrzpEWMl3VC5cEmJrlh5-24">
          <mxGeometry relative="1" as="geometry" />
        </mxCell>
        <mxCell id="PrzpEWMl3VC5cEmJrlh5-13" value="If hill type entered is Large:" style="rhombus;whiteSpace=wrap;html=1;" vertex="1" parent="1">
          <mxGeometry x="-24.5" y="160" width="235" height="134" as="geometry" />
        </mxCell>
        <mxCell id="PrzpEWMl3VC5cEmJrlh5-16" value="Else,&amp;nbsp;&lt;span style=&quot;background-color: initial;&quot;&gt;Output &quot;please&amp;nbsp;&lt;/span&gt;&lt;div&gt;&lt;span style=&quot;background-color: initial;&quot;&gt;enter correct hill type.&quot;&lt;/span&gt;&lt;/div&gt;" style="shape=parallelogram;perimeter=parallelogramPerimeter;whiteSpace=wrap;html=1;fixedSize=1;" vertex="1" parent="1">
          <mxGeometry x="-318" y="197" width="221" height="60" as="geometry" />
        </mxCell>
        <mxCell id="PrzpEWMl3VC5cEmJrlh5-29" value="" style="edgeStyle=none;curved=1;rounded=0;orthogonalLoop=1;jettySize=auto;html=1;fontSize=12;startSize=8;endSize=8;" edge="1" parent="1" source="PrzpEWMl3VC5cEmJrlh5-22" target="PrzpEWMl3VC5cEmJrlh5-42">
          <mxGeometry relative="1" as="geometry">
            <mxPoint x="409.5" y="370.5" as="targetPoint" />
          </mxGeometry>
        </mxCell>
        <mxCell id="PrzpEWMl3VC5cEmJrlh5-22" value="Height is set to 46&lt;div&gt;Points per meter are set to 2&lt;/div&gt;&lt;div&gt;Par is set to 90&lt;/div&gt;" style="rounded=0;whiteSpace=wrap;html=1;" vertex="1" parent="1">
          <mxGeometry x="287" y="10.5" width="245" height="103" as="geometry" />
        </mxCell>
        <mxCell id="PrzpEWMl3VC5cEmJrlh5-30" value="" style="edgeStyle=none;curved=1;rounded=0;orthogonalLoop=1;jettySize=auto;html=1;fontSize=12;startSize=8;endSize=8;entryX=0;entryY=0.5;entryDx=0;entryDy=0;" edge="1" parent="1" source="PrzpEWMl3VC5cEmJrlh5-24" target="PrzpEWMl3VC5cEmJrlh5-42">
          <mxGeometry relative="1" as="geometry">
            <mxPoint x="292" y="437.5" as="targetPoint" />
          </mxGeometry>
        </mxCell>
        <mxCell id="PrzpEWMl3VC5cEmJrlh5-24" value="Height is set to 46&lt;div&gt;Points per meter are set to 2&lt;/div&gt;&lt;div&gt;Par is set to 90&lt;/div&gt;" style="rounded=0;whiteSpace=wrap;html=1;" vertex="1" parent="1">
          <mxGeometry x="-29.5" y="386" width="245" height="103" as="geometry" />
        </mxCell>
        <mxCell id="PrzpEWMl3VC5cEmJrlh5-33" value="" style="edgeStyle=none;curved=1;rounded=0;orthogonalLoop=1;jettySize=auto;html=1;fontSize=12;startSize=8;endSize=8;exitX=0.5;exitY=1;exitDx=0;exitDy=0;" edge="1" parent="1" source="PrzpEWMl3VC5cEmJrlh5-42" target="PrzpEWMl3VC5cEmJrlh5-32">
          <mxGeometry relative="1" as="geometry">
            <mxPoint x="409.5" y="504.5" as="sourcePoint" />
          </mxGeometry>
        </mxCell>
        <mxCell id="PrzpEWMl3VC5cEmJrlh5-35" value="" style="edgeStyle=none;curved=1;rounded=0;orthogonalLoop=1;jettySize=auto;html=1;fontSize=12;startSize=8;endSize=8;" edge="1" parent="1" source="PrzpEWMl3VC5cEmJrlh5-32" target="PrzpEWMl3VC5cEmJrlh5-34">
          <mxGeometry relative="1" as="geometry" />
        </mxCell>
        <mxCell id="PrzpEWMl3VC5cEmJrlh5-32" value="&#xa;Use the formula “sqrt((2*height)/9.8)” to calculate Jumper Air-Time.&#xa;&#xa;" style="rounded=0;whiteSpace=wrap;html=1;" vertex="1" parent="1">
          <mxGeometry x="287" y="570" width="245" height="103" as="geometry" />
        </mxCell>
        <mxCell id="PrzpEWMl3VC5cEmJrlh5-37" value="" style="edgeStyle=none;curved=1;rounded=0;orthogonalLoop=1;jettySize=auto;html=1;fontSize=12;startSize=8;endSize=8;" edge="1" parent="1" source="PrzpEWMl3VC5cEmJrlh5-34" target="PrzpEWMl3VC5cEmJrlh5-36">
          <mxGeometry relative="1" as="geometry" />
        </mxCell>
        <mxCell id="PrzpEWMl3VC5cEmJrlh5-34" value="Use the formula “jumper’s speed * time&lt;div&gt;&amp;nbsp;in the air” calculate Distance Travele&lt;/div&gt;" style="rounded=0;whiteSpace=wrap;html=1;" vertex="1" parent="1">
          <mxGeometry x="-29.5" y="570" width="245" height="103" as="geometry" />
        </mxCell>
        <mxCell id="PrzpEWMl3VC5cEmJrlh5-40" value="" style="edgeStyle=none;curved=1;rounded=0;orthogonalLoop=1;jettySize=auto;html=1;fontSize=12;startSize=8;endSize=8;" edge="1" parent="1" source="PrzpEWMl3VC5cEmJrlh5-36" target="PrzpEWMl3VC5cEmJrlh5-39">
          <mxGeometry relative="1" as="geometry" />
        </mxCell>
        <mxCell id="PrzpEWMl3VC5cEmJrlh5-36" value="Use the formula “60 + (distance - par)*points_per_meter” calculate number of &lt;br/&gt;points earned." style="rounded=0;whiteSpace=wrap;html=1;" vertex="1" parent="1">
          <mxGeometry x="-29.5" y="741" width="245" height="103" as="geometry" />
        </mxCell>
        <mxCell id="PrzpEWMl3VC5cEmJrlh5-46" value="" style="edgeStyle=none;curved=1;rounded=0;orthogonalLoop=1;jettySize=auto;html=1;fontSize=12;startSize=8;endSize=8;" edge="1" parent="1" source="PrzpEWMl3VC5cEmJrlh5-39" target="PrzpEWMl3VC5cEmJrlh5-45">
          <mxGeometry relative="1" as="geometry" />
        </mxCell>
        <mxCell id="PrzpEWMl3VC5cEmJrlh5-49" value="" style="edgeStyle=none;curved=1;rounded=0;orthogonalLoop=1;jettySize=auto;html=1;fontSize=12;startSize=8;endSize=8;" edge="1" parent="1" source="PrzpEWMl3VC5cEmJrlh5-39" target="PrzpEWMl3VC5cEmJrlh5-48">
          <mxGeometry relative="1" as="geometry" />
        </mxCell>
        <mxCell id="PrzpEWMl3VC5cEmJrlh5-39" value="If points earned is &amp;gt;= to 61" style="rhombus;whiteSpace=wrap;html=1;" vertex="1" parent="1">
          <mxGeometry x="-24.5" y="906.5" width="235" height="134" as="geometry" />
        </mxCell>
        <mxCell id="PrzpEWMl3VC5cEmJrlh5-42" value="Ask for user to input Jumper Speed" style="shape=parallelogram;perimeter=parallelogramPerimeter;whiteSpace=wrap;html=1;fixedSize=1;" vertex="1" parent="1">
          <mxGeometry x="299" y="407.5" width="221" height="60" as="geometry" />
        </mxCell>
        <mxCell id="PrzpEWMl3VC5cEmJrlh5-45" value="Output &quot;Great job for doing&amp;nbsp;&lt;div&gt;better than par!&quot;&lt;/div&gt;" style="shape=parallelogram;perimeter=parallelogramPerimeter;whiteSpace=wrap;html=1;fixedSize=1;" vertex="1" parent="1">
          <mxGeometry x="299" y="943.5" width="221" height="60" as="geometry" />
        </mxCell>
        <mxCell id="PrzpEWMl3VC5cEmJrlh5-53" value="" style="edgeStyle=none;curved=1;rounded=0;orthogonalLoop=1;jettySize=auto;html=1;fontSize=12;startSize=8;endSize=8;" edge="1" parent="1" source="PrzpEWMl3VC5cEmJrlh5-48" target="PrzpEWMl3VC5cEmJrlh5-51">
          <mxGeometry relative="1" as="geometry" />
        </mxCell>
        <mxCell id="PrzpEWMl3VC5cEmJrlh5-63" value="" style="edgeStyle=none;curved=1;rounded=0;orthogonalLoop=1;jettySize=auto;html=1;fontSize=12;startSize=8;endSize=8;" edge="1" parent="1" source="PrzpEWMl3VC5cEmJrlh5-48" target="PrzpEWMl3VC5cEmJrlh5-62">
          <mxGeometry relative="1" as="geometry" />
        </mxCell>
        <mxCell id="PrzpEWMl3VC5cEmJrlh5-48" value="If earned points &amp;lt;10" style="rhombus;whiteSpace=wrap;html=1;" vertex="1" parent="1">
          <mxGeometry x="-24.5" y="1092" width="235" height="134" as="geometry" />
        </mxCell>
        <mxCell id="PrzpEWMl3VC5cEmJrlh5-51" value="output &quot;What happened?&quot;" style="shape=parallelogram;perimeter=parallelogramPerimeter;whiteSpace=wrap;html=1;fixedSize=1;" vertex="1" parent="1">
          <mxGeometry x="299" y="1129" width="221" height="60" as="geometry" />
        </mxCell>
        <mxCell id="PrzpEWMl3VC5cEmJrlh5-65" value="" style="edgeStyle=none;curved=1;rounded=0;orthogonalLoop=1;jettySize=auto;html=1;fontSize=12;startSize=8;endSize=8;" edge="1" parent="1" source="PrzpEWMl3VC5cEmJrlh5-62" target="PrzpEWMl3VC5cEmJrlh5-64">
          <mxGeometry relative="1" as="geometry" />
        </mxCell>
        <mxCell id="PrzpEWMl3VC5cEmJrlh5-62" value="Output &quot;Sorry, you didnt go very far&quot;" style="shape=parallelogram;perimeter=parallelogramPerimeter;whiteSpace=wrap;html=1;fixedSize=1;" vertex="1" parent="1">
          <mxGeometry x="-17.5" y="1278" width="221" height="60" as="geometry" />
        </mxCell>
        <mxCell id="PrzpEWMl3VC5cEmJrlh5-64" value="" style="ellipse;whiteSpace=wrap;html=1;" vertex="1" parent="1">
          <mxGeometry x="33" y="1446" width="120" height="80" as="geometry" />
        </mxCell>
        <mxCell id="PrzpEWMl3VC5cEmJrlh5-66" value="" style="endArrow=none;html=1;rounded=0;fontSize=12;startSize=8;endSize=8;curved=1;entryX=0.5;entryY=1;entryDx=0;entryDy=0;" edge="1" parent="1" target="PrzpEWMl3VC5cEmJrlh5-51">
          <mxGeometry width="50" height="50" relative="1" as="geometry">
            <mxPoint x="410" y="1481" as="sourcePoint" />
            <mxPoint x="297" y="1228" as="targetPoint" />
          </mxGeometry>
        </mxCell>
        <mxCell id="PrzpEWMl3VC5cEmJrlh5-67" value="" style="endArrow=classic;html=1;rounded=0;fontSize=12;startSize=8;endSize=8;curved=1;entryX=1;entryY=0.5;entryDx=0;entryDy=0;" edge="1" parent="1" target="PrzpEWMl3VC5cEmJrlh5-64">
          <mxGeometry width="50" height="50" relative="1" as="geometry">
            <mxPoint x="410" y="1480" as="sourcePoint" />
            <mxPoint x="297" y="1228" as="targetPoint" />
          </mxGeometry>
        </mxCell>
        <mxCell id="PrzpEWMl3VC5cEmJrlh5-68" value="" style="endArrow=none;html=1;rounded=0;fontSize=12;startSize=8;endSize=8;curved=1;entryX=1;entryY=0.5;entryDx=0;entryDy=0;" edge="1" parent="1" target="PrzpEWMl3VC5cEmJrlh5-45">
          <mxGeometry width="50" height="50" relative="1" as="geometry">
            <mxPoint x="623" y="974" as="sourcePoint" />
            <mxPoint x="544" y="1101" as="targetPoint" />
          </mxGeometry>
        </mxCell>
        <mxCell id="PrzpEWMl3VC5cEmJrlh5-69" value="" style="endArrow=none;html=1;rounded=0;fontSize=12;startSize=8;endSize=8;curved=1;" edge="1" parent="1">
          <mxGeometry width="50" height="50" relative="1" as="geometry">
            <mxPoint x="622" y="1483" as="sourcePoint" />
            <mxPoint x="622" y="974" as="targetPoint" />
          </mxGeometry>
        </mxCell>
        <mxCell id="PrzpEWMl3VC5cEmJrlh5-70" value="" style="endArrow=none;html=1;rounded=0;fontSize=12;startSize=8;endSize=8;curved=1;" edge="1" parent="1">
          <mxGeometry width="50" height="50" relative="1" as="geometry">
            <mxPoint x="410" y="1482" as="sourcePoint" />
            <mxPoint x="622" y="1482" as="targetPoint" />
          </mxGeometry>
        </mxCell>
        <mxCell id="PrzpEWMl3VC5cEmJrlh5-71" value="" style="endArrow=none;html=1;rounded=0;fontSize=12;startSize=8;endSize=8;curved=1;entryX=1;entryY=0.5;entryDx=0;entryDy=0;" edge="1" parent="1" target="PrzpEWMl3VC5cEmJrlh5-32">
          <mxGeometry width="50" height="50" relative="1" as="geometry">
            <mxPoint x="617" y="622" as="sourcePoint" />
            <mxPoint x="586" y="773" as="targetPoint" />
          </mxGeometry>
        </mxCell>
        <mxCell id="PrzpEWMl3VC5cEmJrlh5-72" value="" style="endArrow=none;html=1;rounded=0;fontSize=12;startSize=8;endSize=8;curved=1;" edge="1" parent="1">
          <mxGeometry width="50" height="50" relative="1" as="geometry">
            <mxPoint x="622" y="976" as="sourcePoint" />
            <mxPoint x="616" y="622" as="targetPoint" />
          </mxGeometry>
        </mxCell>
        <mxCell id="PrzpEWMl3VC5cEmJrlh5-73" value="" style="endArrow=none;html=1;rounded=0;fontSize=12;startSize=8;endSize=8;curved=1;exitX=0.5;exitY=0;exitDx=0;exitDy=0;" edge="1" parent="1" source="PrzpEWMl3VC5cEmJrlh5-16">
          <mxGeometry width="50" height="50" relative="1" as="geometry">
            <mxPoint x="-133" y="396" as="sourcePoint" />
            <mxPoint x="-207" y="-78" as="targetPoint" />
          </mxGeometry>
        </mxCell>
        <mxCell id="PrzpEWMl3VC5cEmJrlh5-74" value="" style="endArrow=classic;html=1;rounded=0;fontSize=12;startSize=8;endSize=8;curved=1;entryX=0;entryY=0.5;entryDx=0;entryDy=0;" edge="1" parent="1" target="PrzpEWMl3VC5cEmJrlh5-8">
          <mxGeometry width="50" height="50" relative="1" as="geometry">
            <mxPoint x="-207" y="-78" as="sourcePoint" />
            <mxPoint x="-82" y="52" as="targetPoint" />
          </mxGeometry>
        </mxCell>
      </root>
    </mxGraphModel>
  </diagram>
</mxfile>
